<?xml version="1.0" encoding="UTF-8"?><svg xmlns="http://www.w3.org/2000/svg" xmlns:xlink="http://www.w3.org/1999/xlink" height="400.0" preserveAspectRatio="xMidYMid meet" version="1.0" viewBox="0.0 0.0 480.0 400.0" width="480.0" zoomAndPan="magnify"><g id="change1_1"><path d="M480,30v240h-10v10h-10v10h-10v10H270v40h10v10h60v10h10v10h10v20h-10v10H130v-10h-10v-20h10v-10h10v-10h60v-10 h10v-40H30v-10H20v-10H10v-10H0v-70v-20v-60v-20V70V60V50V30h10V20h10V10h10V0h420v10h10v10h10v10H480z" fill="#181425"/></g><g id="change2_1"><path d="M440,40v220h-10v10H50v-10H40V40h10V30h380v10H440z" fill="#0099db"/></g><g id="change3_1"><path d="M460,30V20h-10V10H30H20v10H10v10H0v20h10v10H0v10h10v30H0v20h10v60H0v20h10v70h10v10h10v10h420v-10h10v-10h10 V30H460z M450,260h-10v10h-10v10H50v-10H40v-10H30V40h10V30h10V20h380v10h10v10h10V260z M340,360h-60v-10h-10v-10h-10v-40h-40v40 h-10v10h-10v10h-60v10h-10v20h220v-20h-10V360z" fill="#3a4466"/></g><g id="change1_2"><path d="M480,30v240h-10V30H480z M10,270v10h10v-10H10z M20,280v10h10v-10H20z M30,0v10h420V0H30z M450,10v10h10V10H450 z M460,20v10h10V20H460z M460,280h10v-10h-10V280z M450,290h10v-10h-10V290z M30,300h180v40h10v-40h40v40h10v-40h180v-10H30V300z M40,40H30v220h10V40z M40,260v10h10v-10H40z M50,280h380v-10H50V280z M430,270h10v-10h-10V270z M450,260V40h-10v220H450z M440,40 V30h-10v10H440z M430,20H50v10h380V20z M50,30H40v10h10V30z M210,340h-10v10h10V340z M280,350v-10h-10v10H280z M200,350h-60v10h60 V350z M140,360h-10v10h10V360z M120,370v20h10v-20H120z M340,360v-10h-60v10H340z M350,370v-10h-10v10H350z M360,390v-20h-10v20H360 z M130,400h220v-10H130V400z M10,120H0v60h10V120z M0,200v70h10v-70H0z M10,70H0v30h10V70z M10,50H0v10h10V50z" fill="#181425"/></g><g id="change4_1"><path d="M250,330h-10v-10h-10v-10v-10h30v10v10h-10V330z M280,360v-10h-10v10h-30v10h100v-10H280z M260,340v10h10v-10 H260z M340,380h-10v10h10h10v-20h-10V380z M220,370h10v-10h-10V370z M240,290h210v-10H240V290z M450,280h10v-10h-10V280z M460,30 v240h10V30H460z M450,20v10h10V20H450z M240,10v10h210V10H240z M250,330v10h10v-10H250z M240,350h10v-10h-10V350z M230,330v10h10 v-10H230z M280,390h40v-10h-40V390z" fill="#262b44"/></g><g id="change5_1"><path d="M250,120h100v100H210v-30h-80V90h120V120z M60,60h10V50H60V60z M60,80h10V70H60V80z M60,100h10V90H60V100z M80,60h10V50H80V60z M80,80h10V70H80V80z M290,60v50h110V60H290z" fill="#fff"/></g><g id="change6_1"><path d="M330,150h-10v-10h10V150z M150,110h-10v-10h10V110z M160,100h10v10h-10V100z M180,100h10v10h-10V100z M200,100 h10v10h-10V100z M220,100h10v10h-10V100z M150,120h-10v10h10V120z M160,120h10v10h-10V120z M180,120h10v10h-10V120z M270,150h-10 v-10h10V150z M290,150h-10v-10h10V150z M310,150h-10v-10h10V150z M260,170h10v-10h-10V170z M280,170h10v-10h-10V170z" fill="#feae34"/></g><g id="change7_1"><path d="M430,270H50v-10h380V270z M240,80H130v10h110V80z M340,130h-90v-10h90V130z M390,50H290v10h100V50z" fill="#124e89"/></g><g id="change8_1"><path d="M340,120h10v10h-10V120z M240,90h10V80h-10V90z M390,60h10V50h-10V60z" fill="#e43b44"/></g><g id="change3_2"><path d="M350,130h10v90v10H220v-10h130V130z M260,90h-10v30h10V90z M140,200h70v-10h-70V200z M400,60v50H300v10h110v-10 V60H400z" fill="#3a4466"/></g><g id="change9_1"><path d="M50,260H40V40h10V260z M170,40H50V30h120V40z M60,270H50v-10h10V270z M190,40h-10V30h10V40z M220,40h-20V30h20 V40z M230,40h10V30h-10V40z" fill="#2ce8f5"/></g><g id="change10_1"><path d="M250,130h10v70h-10h-40v-10h40V130z M140,370h60v-10h-60V370z M130,390h10v-20h-10V390z M10,270h10V30H10V270z M20,30h10V20H20V30z M30,20h10V10H30V20z M30,280v-10H20v10H30z M40,290v-10H30v10H40z M430,20v10h10V20H430z M430,280h10v-10h-10 V280z M440,30v10h10V30H440z M440,270h10v-10h-10V270z M450,40v220h10V40H450z M200,360h10v-10h-10V360z M210,350h10v-10h-10V350z M220,340h10v-40h-10V340z M310,80h80V70h-80V80z M330,100h60V90h-60V100z" fill="#c0cbdc"/></g><g id="change1_3"><path d="M260,130h-10v-10h10V130z" fill="#181425"/></g></svg>